<?xml version="1.0" encoding="UTF-8"?>
<svg width="377px" height="379px" viewBox="0 0 377 379" version="1.1" xmlns="http://www.w3.org/2000/svg" xmlns:xlink="http://www.w3.org/1999/xlink">
    <!-- Generator: Sketch 52.2 (67145) - http://www.bohemiancoding.com/sketch -->
    <title>health-hero</title>
    <desc>Created with Sketch.</desc>
    <defs>
        <linearGradient x1="7.11897512%" y1="50%" x2="100%" y2="56.2626601%" id="linearGradient-1">
            <stop stop-color="#FDBF7C" offset="0%"></stop>
            <stop stop-color="#FDBF7C" stop-opacity="0" offset="100%"></stop>
        </linearGradient>
        <path d="M300.334895,58.266581 C349.635,105.495031 256.506468,240.617084 176.42441,241.22436 C16.4239901,242.437636 -22.4008262,99.2462145 12.1448645,31.0839727 C45.2179271,-34.1745727 122.428265,21.5136379 165.08332,35.0733663" id="path-2"></path>
        <polygon id="path-4" points="0 301.72421 327.509773 301.72421 327.509773 0.014671579 0 0.014671579"></polygon>
        <polygon id="path-6" points="0 301.72421 327.509773 301.72421 327.509773 0.014671579 0 0.014671579"></polygon>
        <polygon id="path-8" points="0 301.72421 327.509773 301.72421 327.509773 0.014671579 0 0.014671579"></polygon>
        <path d="M0.675886996,9.58436844 C0.342099852,14.3226505 2.33651001,18.5512548 5.28304481,22.0016273 L0,46.5663158 L15.3465354,46.5663158 L12.7478554,28.2236527 C16.8882228,30.7127179 20.9563335,31.9157873 22.8663377,31.4246084 C27.6550962,30.1934716 28.0956696,12.7164316 24.3901208,5.82653052 C22.5715564,2.44505052 17.0583136,0 11.7995674,0 C6.34451351,0.000637894737 1.16441838,2.63322948 0.675886996,9.58436844 Z" id="path-10"></path>
        <path d="M4.55344494,6.59072842 C2.13380786,7.2120379 0.645193926,8.79593055 0.0863242619,11.3430442 C-0.751980234,15.1633958 4.73568505,20.9905642 6.66167524,29.5389916 L8.6509699,29.5389916 L9.57176198,22.4915305 C8.61004579,19.422619 9.01097404,17.4897979 10.7751861,16.694981 C12.5387588,15.8988884 14.3285485,17.0018084 16.1426369,20.0031031 L18.0129959,20.0031031 C18.5782599,17.4744884 19.5175958,15.9671431 20.8303641,15.4804295 C24.9681736,13.9482063 27.9601086,14.8425348 30.4385741,14.8425348 C33.1357277,5.51651369 26.8916061,1.27834105 16.6605825,0.14671579 C15.7743201,0.04848 14.9360156,0 14.1443901,0 C8.83960439,0.000637894737 5.64240951,2.19690948 4.55344494,6.59072842 Z" id="path-12"></path>
        <path d="M0.878589152,12.174221 C2.84742175,16.488941 9.08898558,27.7828673 16.7136559,40.4769727 C21.1673484,47.8899473 29.6981037,59.2757305 42.3046431,74.6336842 L49.2368011,70.435061 C31.8581286,31.9859558 20.5125629,9.12954945 15.2001039,1.86648 C14.270999,0.596431579 12.5029503,0 10.4899964,0 C4.89746311,0.000637894737 -2.57502075,4.60815158 0.878589152,12.174221 Z" id="path-14"></path>
        <path d="M0.681002508,14.4400231 L24.1432973,73.3572569 L54.3523129,61.1320042 C51.857222,57.7511621 31.9572416,12.9856231 23.5844277,1.63811369 C22.7550754,0.514143158 20.888553,0 18.5482063,0 C10.4791259,0.000637894737 -3.20870477,6.11485895 0.681002508,14.4400231 Z" id="path-16"></path>
        <path d="M44.4403693,0.0944084211 C42.5182158,0.0944084211 40.6382652,0.736768421 39.0914623,2.26962948 C36.6897295,4.64897684 34.1511567,7.20246948 31.5492796,9.86249055 C22.4948237,19.1202569 5.87004979,41.4956905 1.29997944,48.146381 C-1.57238044,52.3258673 4.49333768,55.8649073 7.52555729,53.15832 C9.68813988,51.2274127 35.5758268,29.5696105 53.31834,13.5265579 C58.8974451,8.48017266 51.3885132,0.0944084211 44.4410087,0.0944084211 C44.4410087,0.0944084211 44.4410087,0.0944084211 44.4403693,0.0944084211 Z" id="path-18"></path>
        <path d="M5.63857288,0.433768421 C5.61363476,0.451629473 5.58997551,0.470128421 5.56631627,0.489903158 C3.99137808,1.7822779 2.96699684,2.83863158 2.493812,3.65768842 C1.91703804,4.65408 1.24179049,6.20352631 0.468069329,8.30538945 L31.7021055,26.2952969 C34.0629142,24.0862673 34.431231,22.3709684 32.8051377,21.1500379 C31.1803233,19.9297452 29.8394198,18.9001831 28.7824271,18.0619895 L18.0021254,3.24497052 C17.7943077,2.95983158 17.394019,2.8960421 17.1081898,3.1033579 C17.1037137,3.10654737 17.0992376,3.11037473 17.0941221,3.1142021 L14.8541674,4.83460421 C12.7990105,4.65599369 11.2649964,4.27517052 10.253404,3.69213473 C9.43108541,3.21817895 8.48727354,2.23326948 7.42132874,0.735492631 C7.17258698,0.385288421 6.77805313,0.198385263 6.37840378,0.198385263 C6.12198874,0.198385263 5.8636554,0.274932631 5.63857288,0.433768421 Z" id="path-20"></path>
        <path d="M12.3795385,0.590052631 C12.3763413,0.59515579 12.3744231,0.600896842 12.3725047,0.606637895 L11.2944106,3.21435158 C9.42533046,4.0838021 7.90602348,4.51948421 6.73776848,4.51948421 C5.7882016,4.51948421 4.47671226,4.13674737 2.8039399,3.37127369 C2.16130374,3.0778421 1.40228967,3.35915369 1.10814774,3.9996 C1.09535896,4.02702948 1.08384906,4.05509684 1.07233916,4.0838021 C0.358085825,5.98919369 0,7.41425052 0,8.36024844 C0,9.51037266 0.192471132,11.1886737 0.576773955,13.3951516 L36.6417715,13.3951516 C37.5791891,10.3045516 37.0382237,8.63645687 35.0188755,8.38959156 C33.0001666,8.14272633 31.3216393,7.92073898 29.9858513,7.72235367 L13.223598,0.267277895 C13.1391921,0.229642105 13.05031,0.211781052 12.9633463,0.211781052 C12.7190806,0.211781052 12.485046,0.35275579 12.3795385,0.590052631 Z" id="path-22"></path>
        <path d="M0.98345714,0.19264421 C-2.27128724,22.3039895 3.23428233,32.4382231 22.1117997,35.759741 C28.7351087,36.9245369 41.797568,39.0914652 61.297899,42.2598884 C61.9488479,42.44424 61.9667522,43.1548548 61.3516118,44.3910948 L38.0427823,74.228621 L66.4965379,92.3110233 C86.9931149,57.3173937 97.2637839,39.759979 97.3098233,39.6406927 C98.4230862,36.7089284 99.5574512,27.8134863 93.4655159,24.7962442 C59.6027462,9.72024 40.3697008,1.51882737 35.7663796,0.19264421 L0.98345714,0.19264421 Z" id="path-24"></path>
        <path d="M0.30565183,2.08910527 C5.55544581,30.9895642 24.7469277,69.2791958 68.543382,65.5239095 L72.9081924,56.9506042 C44.5676177,44.5518442 29.2626458,13.0698252 5.51771891,0.0197747369 L0.30565183,2.08910527 Z" id="path-26"></path>
        <path d="M0,72.72 L48.9241154,72.72 C51.1602335,72.72 50.7388432,69.4999073 50.4152871,67.8745516 C46.686079,49.1204463 32.1260536,28.9042863 32.1260536,2.20775369 L18.0142748,0 C6.34195575,18.7273137 2.3051775,41.7846569 0,72.72 Z" id="path-28"></path>
    </defs>
    <g id="Page-1" stroke="none" stroke-width="1" fill="none" fill-rule="evenodd">
        <g id="health-hero" transform="translate(-30.000000, -43.000000)">
            <path d="M383.178534,85.7170517 C296.790877,47.8937681 289.926903,118.727777 220.86798,126.277541 C166.593866,132.210944 52.9360305,108.731678 48.3368098,196.566916 C43.5228101,288.302406 171.088194,418.207724 335.491576,344.521365 C425.031366,304.394323 457.658781,118.351319 383.178534,85.7170517 Z" id="Path" fill="url(#linearGradient-1)" opacity="0.8" transform="translate(236.323567, 220.462493) scale(-1, 1) rotate(30.000000) translate(-236.323567, -220.462493) "></path>
            <g id="Group" transform="translate(44.000000, 76.000000)">
                <g id="Group-104" transform="translate(164.500000, 151.500000) scale(-1, 1) translate(-164.500000, -151.500000) translate(-0.000000, 0.000000)">
                    <g id="Group-16" transform="translate(0.000000, 0.623223)">
                        <g id="Group-3" transform="translate(13.428219, 0.000000)">
                            <g id="Fill-1-Clipped">
                                <g>
                                    <mask id="mask-3" fill="white">
                                        <use xlink:href="#path-2"></use>
                                    </mask>
                                    <g id="path-2"></g>
                                    <path d="M300.334895,58.266581 C244.346897,4.63175369 219.351867,52.3252295 165.08332,35.0733663 C122.428265,21.5136379 45.2179271,-34.1745727 12.1448645,31.0839727 C-22.4008262,99.2462145 16.4239901,242.437636 176.42441,241.22436 C256.506468,240.617084 349.635,105.495031 300.334895,58.266581" id="Fill-1" mask="url(#mask-3)"></path>
                                </g>
                            </g>
                        </g>
                        <path d="M55.5606607,242.150136 L102.46351,242.150136 C102.46351,238.946629 99.8603536,236.348484 96.6484511,236.348484 L61.3757187,236.348484 C58.1644562,236.348484 55.5606607,238.946629 55.5606607,242.150136" id="Fill-4" fill="#1C284C"></path>
                        <path d="M96.6011969,245.671634 C96.6011969,248.017812 98.5073646,249.918737 100.858581,249.918737 C103.209799,249.918737 105.115967,248.017812 105.115967,245.671634 C105.115967,243.326095 103.209799,241.425169 100.858581,241.425169 C98.5073646,241.425169 96.6011969,243.326095 96.6011969,245.671634" id="Fill-6" fill="#1C284C"></path>
                        <path d="M52.4052851,245.671634 C52.4052851,248.017812 54.3114527,249.918737 56.6626698,249.918737 C59.0138869,249.918737 60.9200545,248.017812 60.9200545,245.671634 C60.9200545,243.326095 59.0138869,241.425169 56.6626698,241.425169 C54.3114527,241.425169 52.4052851,243.326095 52.4052851,245.671634" id="Fill-8" fill="#1C284C"></path>
                        <path d="M74.5034009,245.671634 C74.5034009,248.017812 76.4095687,249.918737 78.7607855,249.918737 C81.1120023,249.918737 83.01817,248.017812 83.01817,245.671634 C83.01817,243.326095 81.1120023,241.425169 78.7607855,241.425169 C76.4095687,241.425169 74.5034009,243.326095 74.5034009,245.671634" id="Fill-10" fill="#1C284C"></path>
                        <g id="Fill-12-Clipped">
                            <g>
                                <mask id="mask-5" fill="white">
                                    <use xlink:href="#path-4"></use>
                                </mask>
                                <g id="path-4"></g>
                                <polygon id="Fill-12" fill="#1C284C" mask="url(#mask-5)" points="75.0394426 237.860103 82.985111 237.860103 82.985111 161.688455 75.0394426 161.688455"></polygon>
                            </g>
                        </g>
                        <g id="Fill-14-Clipped">
                            <g>
                                <mask id="mask-7" fill="white">
                                    <use xlink:href="#path-6"></use>
                                </mask>
                                <g id="path-6"></g>
                                <path d="M136.194875,167.670312 L136.194875,180.311472 C136.194875,185.093131 133.639037,189.00534 130.516017,189.00534 L53.2538846,189.00534 C39.4790902,189.00534 38.291652,168.471509 37.7391768,157.849285 C37.7353401,157.779117 37.7187147,155.865432 37.7615571,154.994069 L44.3982942,77.8681298 C44.3982942,73.8972348 46.6734181,70.6758663 49.4811946,70.6758663 L92.6759371,70.6758663 C95.483713,70.6758663 97.758837,73.8972348 97.758837,77.8681298 L105.446173,158.865451 C105.724968,162.480401 107.726412,165.203573 110.104485,165.203573 L134.583488,165.203573 C135.473587,165.203573 136.194875,166.30777 136.194875,167.670312" id="Fill-14" fill="#082882" mask="url(#mask-7)"></path>
                            </g>
                        </g>
                        <g id="Fill-15-Clipped">
                            <g>
                                <mask id="mask-9" fill="white">
                                    <use xlink:href="#path-8"></use>
                                </mask>
                                <g id="path-8"></g>
                                <path d="M55.2066033,180.146003 L95.2700126,180.146003 C100.851676,180.146003 105.276594,176.092181 104.930017,169.785955 L104.925541,169.707493 L99.9142582,78.9676047 C99.9142582,74.3754007 97.835442,70.676249 95.277686,70.676249 L55.7686702,70.676249 C53.1949283,70.676249 51.1167517,74.3754007 51.1167517,78.9676047 L48.8269206,116.216192 L47.6752911,135.031536 L47.5410089,137.285218 L45.5510748,169.707493 L46.3701961,156.361459 C45.9820566,162.695755 47.8888637,180.146003 55.2066033,180.146003" id="Fill-15" fill="#02113B" mask="url(#mask-9)"></path>
                            </g>
                        </g>
                    </g>
                    <g id="Group-19" transform="translate(87.603140, 53.568487)">
                        <g id="Fill-17-Clipped">
                            <g>
                                <mask id="mask-11" fill="white">
                                    <use xlink:href="#path-10"></use>
                                </mask>
                                <g id="path-10"></g>
                                <polygon id="Fill-17" fill="#B28B67" mask="url(#mask-11)" points="-3.19719488 49.7557895 30.0536318 49.7557895 30.0536318 -3.18947369 -3.19719488 -3.18947369"></polygon>
                            </g>
                        </g>
                    </g>
                    <g id="Group-22" transform="translate(85.045384, 49.103223)">
                        <g id="Fill-20-Clipped">
                            <g>
                                <mask id="mask-13" fill="white">
                                    <use xlink:href="#path-12"></use>
                                </mask>
                                <g id="path-12"></g>
                                <polygon id="Fill-20" fill="#191847" mask="url(#mask-13)" points="-3.19719488 32.7291031 34.2643374 32.7291031 34.2643374 -3.18947369 -3.19719488 -3.18947369"></polygon>
                            </g>
                        </g>
                    </g>
                    <g id="Group-25" transform="translate(148.989281, 177.957960)">
                        <g id="Fill-23-Clipped">
                            <g>
                                <mask id="mask-15" fill="white">
                                    <use xlink:href="#path-14"></use>
                                </mask>
                                <g id="path-14"></g>
                                <polygon id="Fill-23" fill="#B28B67" mask="url(#mask-15)" points="-3.19719488 77.8231578 52.4339959 77.8231578 52.4339959 -3.18947369 -3.19719488 -3.18947369"></polygon>
                            </g>
                        </g>
                    </g>
                    <g id="Group-28" transform="translate(141.316013, 174.768487)">
                        <g id="Fill-26-Clipped">
                            <g>
                                <mask id="mask-17" fill="white">
                                    <use xlink:href="#path-16"></use>
                                </mask>
                                <g id="path-16"></g>
                                <polygon id="Fill-26" fill="#2F3676" mask="url(#mask-17)" points="-3.19719488 76.5473687 57.5495077 76.5473687 57.5495077 -3.18947369 -3.19719488 -3.18947369"></polygon>
                            </g>
                        </g>
                    </g>
                    <g id="Group-31" transform="translate(101.670797, 188.164276)">
                        <g id="Fill-29-Clipped">
                            <g>
                                <mask id="mask-19" fill="white">
                                    <use xlink:href="#path-18"></use>
                                </mask>
                                <g id="path-18"></g>
                                <polygon id="Fill-29" fill="#B28B67" mask="url(#mask-19)" points="42.0500185 -8.95113033 62.4244626 7.50782969 14.1346706 66.996617 -6.23977341 50.537657"></polygon>
                            </g>
                        </g>
                    </g>
                    <g id="Group-34" transform="translate(98.473602, 232.816908)">
                        <g id="Fill-32-Clipped">
                            <g>
                                <mask id="mask-21" fill="white">
                                    <use xlink:href="#path-20"></use>
                                </mask>
                                <g id="path-20"></g>
                                <polygon id="Fill-32" fill="#E4E4E4" mask="url(#mask-21)" points="5.40715991 -7.75571556 43.0637211 13.9327055 33.2585639 30.8745518 -4.39799733 9.18613076"></polygon>
                            </g>
                        </g>
                    </g>
                    <g id="Group-37" transform="translate(184.797864, 246.212697)">
                        <g id="Fill-35-Clipped">
                            <g>
                                <mask id="mask-23" fill="white">
                                    <use xlink:href="#path-22"></use>
                                </mask>
                                <g id="path-22"></g>
                                <polygon id="Fill-35" fill="#E4E4E4" mask="url(#mask-23)" points="-3.19719488 16.5852631 40.2846554 16.5852631 40.2846554 -2.97769263 -3.19719488 -2.97769263"></polygon>
                            </g>
                        </g>
                    </g>
                    <g id="Group-40" transform="translate(72.256604, 149.890591)">
                        <g id="Fill-38-Clipped">
                            <g>
                                <mask id="mask-25" fill="white">
                                    <use xlink:href="#path-24"></use>
                                </mask>
                                <g id="path-24"></g>
                                <polygon id="Fill-38" fill="#5C63AB" mask="url(#mask-25)" points="-3.09296632 95.5011345 101.389444 95.5011345 101.389444 -2.99682948 -3.09296632 -2.99682948"></polygon>
                            </g>
                        </g>
                    </g>
                    <path d="M142.1203,139.357801 L165.478366,149.069748 C171.206461,149.212637 176.136535,149.923889 180.26795,151.202868 C181.308317,151.769957 182.720199,153.089124 179.121436,153.674711 C175.522034,154.260936 171.762133,155.038529 171.567744,156.358972 C171.373354,157.679414 173.86205,158.59862 173.271848,160.459997 C172.878593,161.700703 169.113576,159.741727 161.977438,154.583711 L140.372713,151.225195 L142.1203,139.357801 Z" id="Fill-41" fill="#B28B67"></path>
                    <g id="Group-45" transform="translate(93.358090, 91.204276)">
                        <g id="Fill-43-Clipped">
                            <g>
                                <mask id="mask-27" fill="white">
                                    <use xlink:href="#path-26"></use>
                                </mask>
                                <g id="path-26"></g>
                                <polygon id="Fill-43" fill="#FFFFFF" mask="url(#mask-27)" points="-3.42918333 -2.1021821 67.8266988 -10.7934979 77.441303 67.6522452 6.18542109 76.3435611"></polygon>
                            </g>
                        </g>
                    </g>
                    <g id="Group-48" transform="translate(70.977726, 82.926316)">
                        <g id="Fill-46-Clipped">
                            <g>
                                <mask id="mask-29" fill="white">
                                    <use xlink:href="#path-28"></use>
                                </mask>
                                <g id="path-28"></g>
                                <polygon id="Fill-46" fill="#E0E0E0" mask="url(#mask-29)" points="-1.91831693 68.2547369 55.1509721 72.72 55.1509721 -6.37894737 -1.91831693 -6.37894737"></polygon>
                            </g>
                        </g>
                    </g>
                    <path d="M107.232573,111.30559 C107.232573,102.831863 107.232573,96.809687 107.232573,93.2390638 C107.232573,89.6684406 105.833632,87.9319105 103.035748,88.0294734" id="Path-5" stroke="#979797" stroke-width="3"></path>
                    <path d="M88.5685645,82.9115164 C89.0462251,82.9115164 89.4842409,82.9414974 89.8813326,83.0014596 L94.2992169,83.2527906 C100.126557,102.954903 104.295842,129.45707 110.690084,143.84789 C118.20386,160.758327 127.159692,163.938948 121.404789,163.938948 C110.752452,163.938948 85.9024125,206.44284 75.2500744,206.44284 C73.0667407,206.44284 61.3301017,126.162907 75.0394426,101.459263 C81.2087497,91.8568422 82.7332348,97.6308981 84.8110296,94.2316176 C87.5770465,89.7064004 83.5536464,82.9115164 88.5685645,82.9115164 Z" id="Fill-49" fill="#FFFFFF"></path>
                    <path d="M249.38184,165.553204 L290.973508,165.553204 L290.973508,163.978879 C290.973508,159.344575 288.420228,155.579719 285.273549,155.579719 L77.3171242,155.579719 C74.170445,155.579719 71.6171652,159.344575 71.6171652,163.978879 L71.6171652,165.553204 L249.38184,165.553204" id="Fill-53" fill="#C9C9C9"></path>
                    <path d="M168.771029,155.631581 L201.024331,155.631581 L200.644504,151.377461 L170.395204,152.714488 C169.481446,152.835688 168.771029,153.753619 168.771029,155.631581" id="Fill-55" fill="#595959"></path>
                    <path d="M133.279033,155.709149 L152.431509,155.709149 C152.431509,155.709149 152.153992,152.064218 142.855271,152.064218 C133.557189,152.064218 133.279033,155.709149 133.279033,155.709149" id="Fill-71" fill="#E0E0E0"></path>
                    <path d="M112.462608,137.418857 L135.800852,147.179284 C141.528307,147.334292 146.457103,149.330903 150.585321,150.618812 C151.625048,151.188452 153.034372,152.51017 149.433691,153.088103 C147.324182,153.427463 145.093179,152.121055 141.677296,151.941168 C139.264693,151.812951 136.25933,153.524423 132.288414,153.324124 L110.690084,149.282423 L112.462608,137.418857 Z" id="Fill-73" fill="#B28B67"></path>
                    <ellipse id="Oval" stroke="#979797" stroke-width="3" fill="#D8D8D8" cx="123.411722" cy="135.871579" rx="3.19719488" ry="3.18947369"></ellipse>
                    <g id="Fill-75" transform="translate(78.650994, 101.425263)">
                        <g id="path-26-link" fill="#000000">
                            <path d="M0.10959984,3.01807137 L4.49679065,0.0339997895 C26.3796712,8.14802087 31.2029594,36.2377156 57.0535588,42.8533219 L53.9567559,51.9579935 C15.9433877,63.8636609 7.144068,29.9346777 0.10959984,3.01807137" id="path-26"></path>
                        </g>
                        <g id="path-26-link" fill="#FFFFFF">
                            <path d="M0.10959984,3.01807137 L4.49679065,0.0339997895 C26.3796712,8.14802087 31.2029594,36.2377156 57.0535588,42.8533219 L53.9567559,51.9579935 C15.9433877,63.8636609 7.144068,29.9346777 0.10959984,3.01807137" id="path-26"></path>
                        </g>
                    </g>
                    <polygon id="Fill-77" fill="#C9C9C9" points="237.075261 259.112204 247.030047 259.112204 247.030047 165.501279 237.075261 165.501279"></polygon>
                    <polygon id="Fill-79" fill="#C9C9C9" points="145.873103 272.307805 155.827889 272.307805 155.827889 165.501279 145.873103 165.501279"></polygon>
                    <polygon id="Fill-81" fill="#C9C9C9" points="85.2190795 259.972214 93.6637425 259.972214 94.7658149 165.501279 84.8110296 165.501279"></polygon>
                    <path d="M147.791931,165.807405 L165.581124,165.807405 L165.581124,164.23308 C165.581124,159.599413 164.488962,155.83392 163.143582,155.83392 L74.1957028,155.83392 C72.8503232,155.83392 71.7581615,159.599413 71.7581615,164.23308 L71.7581615,165.807405 L147.791931,165.807405" id="Fill-85" fill="#E0E0E0"></path>
                    <path d="M164.039245,155.631581 L189.258718,155.631581 L189.258718,151.804212 L165.66342,152.916062 C164.749661,153.00792 164.039245,154.196317 164.039245,155.631581" id="Fill-87" fill="#494949"></path>
                    <g id="Group-103" transform="translate(169.451329, 96.307433)">
                        <path d="M1.16524964,49.5794116 L61.7942955,49.5794116 C62.2303929,49.5794116 62.6051041,49.2719463 62.6888706,48.8451948 L83.548649,1.72199684 C83.659272,1.16001158 83.2282902,0.63757579 82.654074,0.63757579 L12.4334432,0.63757579 C11.9973459,0.63757579 11.6226346,0.945678945 11.5395075,1.37179263 L0.271313957,48.4956284 C0.160691014,49.0569758 0.591672883,49.5794116 1.16524964,49.5794116" id="Fill-93" fill="#9E9E9E"></path>
                        <path d="M2.59087884,49.5794116 L79.2058993,49.5794116 C79.6419964,49.5794116 80.0167074,49.2719463 80.1004743,48.8451948 L91.3686679,1.72199684 C91.4792908,1.16001158 91.048309,0.63757579 90.4740929,0.63757579 L13.8590724,0.63757579 C13.4229751,0.63757579 13.0482638,0.945678945 12.9651367,1.37179263 L1.69694315,48.4956284 C1.58632021,49.0569758 2.01730208,49.5794116 2.59087884,49.5794116" id="Fill-95" fill="#494949"></path>
                        <path d="M24.9412532,57.9826541 L24.9412532,59.2718393 L49.7834574,59.2718393 C50.8570754,59.2718393 51.7017744,57.686033 51.5988246,56.6022499 L53.7479791,27.337553 C53.7287959,27.1640457 53.5817249,27.028812 53.4026821,27.028812 L40.5940799,27.028812 C40.4220709,27.028812 40.2743605,27.1576668 40.2487829,27.331812 L31.7640671,55.6702857 C31.6067651,56.989452 30.4973385,57.9826541 29.1800942,57.9826541 L24.9412532,57.9826541 Z" id="Fill-97" fill="#9E9E9E"></path>
                        <path d="M23.6592421,57.9963689 L23.6592421,59.2721583 L50.4197632,59.2721583 C51.4940206,59.2721583 52.3380801,57.7029372 52.2357699,56.6312741 L54.3842848,27.683611 C54.3651016,27.5113793 54.2180307,27.3774215 54.0389877,27.3774215 L41.2303856,27.3774215 C41.0583766,27.3774215 40.9106661,27.5050004 40.8857281,27.677232 L32.4003729,55.7101541 C32.2437103,57.0146489 31.1336442,57.9963689 29.8164,57.9963689 L23.6592421,57.9963689 Z" id="Fill-99" fill="#494949"></path>
                        <path d="M54.3841569,16.890432 C54.3841569,19.8866236 51.9491733,22.3157268 48.9457284,22.3157268 C45.9422835,22.3157268 43.5066605,19.8866236 43.5066605,16.890432 C43.5066605,13.8942404 45.9422835,11.4651372 48.9457284,11.4651372 C51.9491733,11.4651372 54.3841569,13.8942404 54.3841569,16.890432" id="Fill-101" fill="#595959"></path>
                    </g>
                </g>
                <g id="Group-2" transform="translate(226.496263, 111.620478) scale(-1, 1) translate(-226.496263, -111.620478) translate(206.996263, 88.120478)">
                    <ellipse id="Oval" fill="#494949" cx="2.09201312" cy="1.91368421" rx="1.91831693" ry="1.91368421"></ellipse>
                    <path d="M1.45257414,3.19457684 C-1.12485274,5.36749788 -0.272267441,8.33774841 4.01033004,12.1053284 C7.48558852,15.1626586 14.3941961,16.1929072 21.1273381,19.1923098 C22.1701246,19.6568383 23.2207461,21.0181071 24.2792027,23.2761162 C24.792812,28.8094957 25.9453155,32.9359175 27.7367132,35.6553815 C29.5281109,38.3748455 33.0996794,41.9421111 38.4514189,46.3571786" id="Path-4" stroke="#979797" stroke-width="3"></path>
                </g>
            </g>
            <text id="." font-family="Graphik-Regular, Graphik" font-size="15" font-weight="normal" fill="#F1F8FF">
                <tspan x="310" y="45">.</tspan>
            </text>
            <text id="." font-family="Graphik-Regular, Graphik" font-size="15" font-weight="normal" fill="#F1F8FF">
                <tspan x="227" y="421">.</tspan>
            </text>
        </g>
    </g>
</svg>